<svg xmlns="http://www.w3.org/2000/svg" version="1.1" viewBox="0 0 100 100">
  <style>
    path {
      fill: #000;
    }

    @media (prefers-color-scheme: dark) {
      path {
        fill: #fff;
      }
    }
  </style>
  <path d="m86.586 67.957c0.44141-0.12109 0.90234 0.14062 1.0234 0.58203l-0.47266 0.13281c0.44141-0.12109 0.47266-0.13281 0.47266-0.13281v0.007813s0 0.003906 0.003906 0.007813c0 0.003906 0.003907 0.011718 0.003907 0.023437 0.007812 0.019531 0.011718 0.046875 0.019531 0.082031 0.019531 0.070313 0.039062 0.17188 0.066406 0.29688 0.050781 0.25391 0.11328 0.61328 0.16016 1.0586 0.097657 0.89062 0.14844 2.1367-0.046875 3.5547-0.39844 2.8516-1.7891 6.4023-5.7227 9.1484s-7.6875 2.7891-10.449 2.1328c-1.207-0.28906-2.2227-0.71094-2.9805-1.0898l0.76172 5.7109c0.0625 0.45703-0.25781 0.875-0.71484 0.93359-0.45313 0.0625-0.87109-0.25781-0.93359-0.71484l-0.98828-7.4141c-0.0625-0.45703 0.25781-0.875 0.71484-0.93359l7.4141-0.98828c0.45703-0.0625 0.875 0.25781 0.93359 0.71484 0.0625 0.45313-0.25781 0.87109-0.71094 0.93359l-4.8945 0.65234c0.51953 0.21094 1.1211 0.41797 1.7852 0.57812 2.3867 0.57031 5.6367 0.54688 9.1133-1.8789 3.4766-2.4297 4.6797-5.5195 5.0234-8.0117 0.17578-1.2539 0.12891-2.3594 0.042969-3.1445-0.042969-0.39453-0.097657-0.70703-0.14063-0.91797-0.019531-0.10547-0.039062-0.18359-0.050781-0.23438-0.003906-0.027344-0.007812-0.046875-0.011719-0.054687-0.003906-0.007813-0.003906-0.011719-0.003906-0.011719-0.12109-0.44141 0.14062-0.89844 0.58203-1.0234zm-8.9727-35.094v10.176l-9.2422 6.7773-3.3672 2.4688h0.003906l3.3633-2.4688 0.60547-0.44141 8.6367 5.2188v10.199l-27.5 20.168-27.5-20.168v-10.199l8.6367-5.2188-8.6367-6.3359v-10.176l27.5-18.102zm-26.5 42.234v6.6484l6.832-5.0117v-6.6484zm-8.832 1.6367 6.832 5.0117v-6.6484l-6.832-5.0117zm-8.8359-6.4766 6.8359 5.0117v-6.6484l-2.0508-1.5078h-4.7852zm26.5-1.6367v6.6484l6.8359-5.0117v-3.1445h-4.7812zm-35.332-4.8438 6.832 5.0117v-1.6758h-1.832v-6.3203l-5-3.6602zm45.492-2.6094v5.9453h-1.3242v1.6758l6.832-5.0117v-6.6445zm-38.492 3.9453h10.828v-7.5352l-4.4922-3.293h-6.3359zm12.828 0h10.832v-5.6953l-5.1602 3.7852-5.6719-4.1562zm12.832-7.1602v7.1602h10.832v-10.828h-5.8281zm-6.1602-4.6094v6.6484l6.832-5.0117v-6.6484zm-8.832 1.6367 6.832 5.0117v-6.6484l-6.832-5.0117zm-8.8359-6.4805 6.8359 5.0117v-6.6445l-6.8359-5.0117zm26.5-1.6328v6.6445l6.8359-5.0117v-6.6445zm-16.957-0.49609 7.125 5.2266 7.1211-5.2266-7.1211-5.043zm-18.375-4.3477 6.832 5.0117v-6.6484l-6.832-5.0117zm44.168-1.6367v6.6484l6.832-5.0117v-6.6484zm-34.605-0.47656 7.1133 5.2148 7.0938-5.0234-7.1133-5.0391zm17.668 0.19141 7.0898 5.0234 7.1133-5.2148-7.0898-4.8477zm-8.8125-6.2422 7.082 5.0156 7.082-5.0156-7.082-4.8398zm-17.668-0.41406 7.1016 5.2109 7.0625-4.8281-7.1016-5.0312zm35.332 0.38281 7.0625 4.8281 7.1016-5.207-7.0586-4.6523zm-8.8086-6.0195 7.0508 4.8164 7.0703-5.0078-7.0508-4.6406zm-17.668-0.19141 7.0703 5.0078 7.0508-4.8164-7.0703-4.832zm-1.9805-17.609c0.45703-0.0625 0.875 0.25781 0.93359 0.71484l0.98828 7.4141c0.0625 0.45703-0.25781 0.875-0.71094 0.93359l-7.418 0.98828c-0.45703 0.0625-0.875-0.25781-0.93359-0.71094-0.0625-0.45703 0.25781-0.875 0.71484-0.93359l4.8906-0.65234c-0.51953-0.21484-1.1172-0.42188-1.7812-0.58203-2.3906-0.56641-5.6367-0.54688-9.1133 1.8789-3.4805 2.4297-4.6797 5.5234-5.0273 8.0117-0.17188 1.2539-0.12891 2.3594-0.042969 3.1484 0.042969 0.39062 0.097657 0.70312 0.14062 0.91406 0.019532 0.10547 0.039063 0.18359 0.050782 0.23438 0.007812 0.027343 0.011718 0.046874 0.011718 0.054687 0.003906 0.007813 0.003906 0.011719 0.003906 0.011719 0.12109 0.44141-0.13672 0.89844-0.58203 1.0234-0.44141 0.12109-0.89844-0.14062-1.0195-0.58203l0.46875-0.12891c-0.46875 0.12891-0.47266 0.125-0.47266 0.125h0.003906-0.003906v-0.007813c-0.003906-0.007812-0.003906-0.015625-0.007813-0.027343-0.003906-0.019532-0.011719-0.046876-0.019531-0.082032-0.015625-0.070312-0.039062-0.16797-0.066406-0.29688-0.050782-0.25-0.10938-0.61328-0.16016-1.0586-0.097657-0.89063-0.14844-2.1367 0.050781-3.5547 0.39453-2.8516 1.7891-6.3984 5.7188-9.1445 3.9336-2.75 7.6875-2.793 10.449-2.1367 1.207 0.28906 2.2227 0.71094 2.9805 1.0898l-0.76172-5.7109c-0.058594-0.45312 0.26172-0.875 0.71484-0.93359zm10.836 11.781 7.0391 4.8086 7.0391-4.8086-7.0391-4.6367z"/>
 </svg>